<mxfile host="Electron" modified="2025-05-08T09:16:44.348Z" agent="Mozilla/5.0 (Windows NT 10.0; Win64; x64) AppleWebKit/537.36 (KHTML, like Gecko) draw.io/21.2.1 Chrome/112.0.5615.87 Electron/24.1.2 Safari/537.36" etag="oBJKs0ynqLlRhUkpnl8Z" version="21.2.1" type="device">
  <diagram name="Page-1" id="HaIUJVoZk4COnpKKAjwj">
    <mxGraphModel dx="819" dy="521" grid="1" gridSize="10" guides="1" tooltips="1" connect="1" arrows="1" fold="1" page="1" pageScale="1" pageWidth="827" pageHeight="1169" math="0" shadow="0">
      <root>
        <mxCell id="0" />
        <mxCell id="1" parent="0" />
        <mxCell id="I3M9mKIOv1_McoUt9Y0t-1" value="&lt;font color=&quot;#000000&quot;&gt;Start&lt;/font&gt;" style="ellipse;whiteSpace=wrap;html=1;aspect=fixed;fillColor=#04cc08;fontColor=#ffffff;strokeColor=#005700;" vertex="1" parent="1">
          <mxGeometry x="80" y="38" width="40" height="40" as="geometry" />
        </mxCell>
        <mxCell id="I3M9mKIOv1_McoUt9Y0t-3" value="" style="endArrow=classic;html=1;rounded=0;entryX=0.474;entryY=0;entryDx=0;entryDy=0;entryPerimeter=0;" edge="1" parent="1" target="I3M9mKIOv1_McoUt9Y0t-4">
          <mxGeometry width="50" height="50" relative="1" as="geometry">
            <mxPoint x="100" y="80" as="sourcePoint" />
            <mxPoint x="100" y="90" as="targetPoint" />
            <Array as="points" />
          </mxGeometry>
        </mxCell>
        <mxCell id="I3M9mKIOv1_McoUt9Y0t-4" value="Dataset with 115 features and&lt;br&gt;6388 CaseID" style="rounded=1;whiteSpace=wrap;html=1;" vertex="1" parent="1">
          <mxGeometry x="38" y="100" width="130" height="50" as="geometry" />
        </mxCell>
        <mxCell id="I3M9mKIOv1_McoUt9Y0t-6" value="Feature has &lt;br&gt;more than 25%&lt;br&gt;&amp;nbsp;NAN values" style="rhombus;whiteSpace=wrap;html=1;" vertex="1" parent="1">
          <mxGeometry x="42.5" y="321" width="120" height="100" as="geometry" />
        </mxCell>
        <mxCell id="I3M9mKIOv1_McoUt9Y0t-9" value="" style="endArrow=classic;html=1;rounded=0;entryX=0.474;entryY=0;entryDx=0;entryDy=0;entryPerimeter=0;" edge="1" parent="1">
          <mxGeometry width="50" height="50" relative="1" as="geometry">
            <mxPoint x="102.5" y="281" as="sourcePoint" />
            <mxPoint x="103" y="321" as="targetPoint" />
            <Array as="points" />
          </mxGeometry>
        </mxCell>
        <mxCell id="I3M9mKIOv1_McoUt9Y0t-10" value="" style="endArrow=classic;html=1;rounded=0;" edge="1" parent="1">
          <mxGeometry width="50" height="50" relative="1" as="geometry">
            <mxPoint x="161.5" y="371" as="sourcePoint" />
            <mxPoint x="190" y="370" as="targetPoint" />
            <Array as="points" />
          </mxGeometry>
        </mxCell>
        <mxCell id="I3M9mKIOv1_McoUt9Y0t-11" value="Remove feature" style="rounded=0;whiteSpace=wrap;html=1;" vertex="1" parent="1">
          <mxGeometry x="190" y="350" width="90" height="36" as="geometry" />
        </mxCell>
        <mxCell id="I3M9mKIOv1_McoUt9Y0t-12" value="" style="endArrow=classic;html=1;rounded=0;entryX=0.474;entryY=0;entryDx=0;entryDy=0;entryPerimeter=0;" edge="1" parent="1">
          <mxGeometry width="50" height="50" relative="1" as="geometry">
            <mxPoint x="103" y="152" as="sourcePoint" />
            <mxPoint x="103" y="192" as="targetPoint" />
            <Array as="points">
              <mxPoint x="103" y="172" />
            </Array>
          </mxGeometry>
        </mxCell>
        <mxCell id="I3M9mKIOv1_McoUt9Y0t-14" value="Is age for &lt;br&gt;Case ID &lt;br&gt;under 18" style="rhombus;whiteSpace=wrap;html=1;" vertex="1" parent="1">
          <mxGeometry x="53" y="192" width="100" height="90" as="geometry" />
        </mxCell>
        <mxCell id="I3M9mKIOv1_McoUt9Y0t-17" value="Remove Case ID" style="rounded=0;whiteSpace=wrap;html=1;" vertex="1" parent="1">
          <mxGeometry x="190" y="219" width="99" height="40" as="geometry" />
        </mxCell>
        <mxCell id="I3M9mKIOv1_McoUt9Y0t-18" value="Case ID has &lt;br&gt;more than 25%&lt;br&gt;&amp;nbsp;NAN values" style="rhombus;whiteSpace=wrap;html=1;" vertex="1" parent="1">
          <mxGeometry x="43" y="461" width="120" height="100" as="geometry" />
        </mxCell>
        <mxCell id="I3M9mKIOv1_McoUt9Y0t-19" value="" style="endArrow=classic;html=1;rounded=0;entryX=0.474;entryY=0;entryDx=0;entryDy=0;entryPerimeter=0;" edge="1" parent="1">
          <mxGeometry width="50" height="50" relative="1" as="geometry">
            <mxPoint x="102.5" y="421" as="sourcePoint" />
            <mxPoint x="103" y="461" as="targetPoint" />
            <Array as="points" />
          </mxGeometry>
        </mxCell>
        <mxCell id="I3M9mKIOv1_McoUt9Y0t-20" value="" style="endArrow=classic;html=1;rounded=0;" edge="1" parent="1">
          <mxGeometry width="50" height="50" relative="1" as="geometry">
            <mxPoint x="163.5" y="511" as="sourcePoint" />
            <mxPoint x="190" y="511" as="targetPoint" />
            <Array as="points" />
          </mxGeometry>
        </mxCell>
        <mxCell id="I3M9mKIOv1_McoUt9Y0t-21" value="Remove Case ID" style="rounded=0;whiteSpace=wrap;html=1;" vertex="1" parent="1">
          <mxGeometry x="189" y="490" width="111" height="39" as="geometry" />
        </mxCell>
        <mxCell id="I3M9mKIOv1_McoUt9Y0t-24" value="Yes" style="text;html=1;strokeColor=none;fillColor=none;align=center;verticalAlign=middle;whiteSpace=wrap;rounded=0;" vertex="1" parent="1">
          <mxGeometry x="141" y="210" width="60" height="30" as="geometry" />
        </mxCell>
        <mxCell id="I3M9mKIOv1_McoUt9Y0t-25" value="Yes" style="text;html=1;strokeColor=none;fillColor=none;align=center;verticalAlign=middle;whiteSpace=wrap;rounded=0;" vertex="1" parent="1">
          <mxGeometry x="148" y="321" width="60" height="30" as="geometry" />
        </mxCell>
        <mxCell id="I3M9mKIOv1_McoUt9Y0t-26" value="Yes" style="text;html=1;strokeColor=none;fillColor=none;align=center;verticalAlign=middle;whiteSpace=wrap;rounded=0;" vertex="1" parent="1">
          <mxGeometry x="141" y="488" width="60" height="30" as="geometry" />
        </mxCell>
        <mxCell id="I3M9mKIOv1_McoUt9Y0t-27" value="No" style="text;html=1;strokeColor=none;fillColor=none;align=center;verticalAlign=middle;whiteSpace=wrap;rounded=0;" vertex="1" parent="1">
          <mxGeometry x="88" y="282" width="60" height="30" as="geometry" />
        </mxCell>
        <mxCell id="I3M9mKIOv1_McoUt9Y0t-28" value="No" style="text;html=1;strokeColor=none;fillColor=none;align=center;verticalAlign=middle;whiteSpace=wrap;rounded=0;" vertex="1" parent="1">
          <mxGeometry x="88" y="421" width="60" height="30" as="geometry" />
        </mxCell>
        <mxCell id="I3M9mKIOv1_McoUt9Y0t-29" value="No" style="text;html=1;strokeColor=none;fillColor=none;align=center;verticalAlign=middle;whiteSpace=wrap;rounded=0;" vertex="1" parent="1">
          <mxGeometry x="93" y="561" width="60" height="30" as="geometry" />
        </mxCell>
        <mxCell id="I3M9mKIOv1_McoUt9Y0t-30" value="" style="endArrow=classic;html=1;rounded=0;entryX=0.402;entryY=-0.008;entryDx=0;entryDy=0;entryPerimeter=0;" edge="1" parent="1">
          <mxGeometry width="50" height="50" relative="1" as="geometry">
            <mxPoint x="103" y="561" as="sourcePoint" />
            <mxPoint x="103.298" y="599.6800000000001" as="targetPoint" />
          </mxGeometry>
        </mxCell>
        <mxCell id="I3M9mKIOv1_McoUt9Y0t-31" value="Dataset with 50 features and&lt;br&gt;6253 CaseIDs" style="rounded=1;whiteSpace=wrap;html=1;" vertex="1" parent="1">
          <mxGeometry x="40" y="600" width="130" height="50" as="geometry" />
        </mxCell>
        <mxCell id="I3M9mKIOv1_McoUt9Y0t-32" value="Stop" style="ellipse;whiteSpace=wrap;html=1;aspect=fixed;fillColor=#ff0000;" vertex="1" parent="1">
          <mxGeometry x="84" y="680" width="40" height="40" as="geometry" />
        </mxCell>
        <mxCell id="I3M9mKIOv1_McoUt9Y0t-33" value="" style="endArrow=classic;html=1;rounded=0;" edge="1" parent="1">
          <mxGeometry width="50" height="50" relative="1" as="geometry">
            <mxPoint x="103" y="650" as="sourcePoint" />
            <mxPoint x="103" y="680" as="targetPoint" />
          </mxGeometry>
        </mxCell>
        <mxCell id="I3M9mKIOv1_McoUt9Y0t-37" value="" style="endArrow=classic;html=1;rounded=0;" edge="1" parent="1">
          <mxGeometry width="50" height="50" relative="1" as="geometry">
            <mxPoint x="240" y="530" as="sourcePoint" />
            <mxPoint x="170" y="625" as="targetPoint" />
            <Array as="points">
              <mxPoint x="240" y="625" />
              <mxPoint x="170" y="625" />
            </Array>
          </mxGeometry>
        </mxCell>
        <mxCell id="I3M9mKIOv1_McoUt9Y0t-39" value="" style="endArrow=none;html=1;rounded=0;exitX=0.25;exitY=1;exitDx=0;exitDy=0;entryX=0.547;entryY=1.028;entryDx=0;entryDy=0;entryPerimeter=0;" edge="1" parent="1" source="I3M9mKIOv1_McoUt9Y0t-28" target="I3M9mKIOv1_McoUt9Y0t-11">
          <mxGeometry width="50" height="50" relative="1" as="geometry">
            <mxPoint x="290" y="620" as="sourcePoint" />
            <mxPoint x="250" y="390" as="targetPoint" />
            <Array as="points">
              <mxPoint x="240" y="450" />
              <mxPoint x="239" y="420" />
            </Array>
          </mxGeometry>
        </mxCell>
        <mxCell id="I3M9mKIOv1_McoUt9Y0t-40" value="" style="endArrow=none;html=1;rounded=0;" edge="1" parent="1">
          <mxGeometry width="50" height="50" relative="1" as="geometry">
            <mxPoint x="240" y="625" as="sourcePoint" />
            <mxPoint x="240" y="625" as="targetPoint" />
          </mxGeometry>
        </mxCell>
        <mxCell id="I3M9mKIOv1_McoUt9Y0t-41" value="" style="endArrow=none;html=1;rounded=0;" edge="1" parent="1">
          <mxGeometry width="50" height="50" relative="1" as="geometry">
            <mxPoint x="320" y="590" as="sourcePoint" />
            <mxPoint x="320" y="590" as="targetPoint" />
          </mxGeometry>
        </mxCell>
        <mxCell id="I3M9mKIOv1_McoUt9Y0t-42" value="" style="endArrow=classic;html=1;rounded=0;exitX=1;exitY=0.5;exitDx=0;exitDy=0;" edge="1" parent="1" source="I3M9mKIOv1_McoUt9Y0t-14">
          <mxGeometry width="50" height="50" relative="1" as="geometry">
            <mxPoint x="153" y="242" as="sourcePoint" />
            <mxPoint x="190" y="237" as="targetPoint" />
          </mxGeometry>
        </mxCell>
        <mxCell id="I3M9mKIOv1_McoUt9Y0t-43" value="" style="endArrow=none;html=1;rounded=0;startSize=10;jumpSize=1;exitX=0.25;exitY=1;exitDx=0;exitDy=0;" edge="1" parent="1" source="I3M9mKIOv1_McoUt9Y0t-27">
          <mxGeometry width="50" height="50" relative="1" as="geometry">
            <mxPoint x="320" y="630" as="sourcePoint" />
            <mxPoint x="250" y="260" as="targetPoint" />
            <Array as="points">
              <mxPoint x="250" y="312" />
            </Array>
          </mxGeometry>
        </mxCell>
      </root>
    </mxGraphModel>
  </diagram>
</mxfile>
